<svg width="16" height="16" viewBox="0 0 16 16" fill="none" xmlns="http://www.w3.org/2000/svg">
<path d="M13.95 8.78333C13.9833 8.53333 14 8.275 14 8C14 7.73333 13.9833 7.46667 13.9417 7.21667L15.6333 5.9C15.7833 5.78333 15.825 5.55833 15.7333 5.39167L14.1333 2.625C14.0333 2.44167 13.825 2.38333 13.6417 2.44167L11.65 3.24167C11.2333 2.925 10.7917 2.65833 10.3 2.45833L9.99999 0.341667C9.96666 0.141667 9.79999 0 9.59999 0H6.39999C6.19999 0 6.04166 0.141667 6.00832 0.341667L5.70832 2.45833C5.21666 2.65833 4.76666 2.93333 4.35832 3.24167L2.36666 2.44167C2.18332 2.375 1.97499 2.44167 1.87499 2.625L0.283323 5.39167C0.183323 5.56667 0.216656 5.78333 0.383323 5.9L2.07499 7.21667C2.03332 7.46667 1.99999 7.74167 1.99999 8C1.99999 8.25833 2.01666 8.53333 2.05832 8.78333L0.366656 10.1C0.216656 10.2167 0.17499 10.4417 0.266656 10.6083L1.86666 13.375C1.96666 13.5583 2.17499 13.6167 2.35832 13.5583L4.34999 12.7583C4.76666 13.075 5.20832 13.3417 5.69999 13.5417L5.99999 15.6583C6.04166 15.8583 6.19999 16 6.39999 16H9.59999C9.79999 16 9.96666 15.8583 9.99166 15.6583L10.2917 13.5417C10.7833 13.3417 11.2333 13.075 11.6417 12.7583L13.6333 13.5583C13.8167 13.625 14.025 13.5583 14.125 13.375L15.725 10.6083C15.825 10.425 15.7833 10.2167 15.625 10.1L13.95 8.78333ZM7.99999 11C6.34999 11 4.99999 9.65 4.99999 8C4.99999 6.35 6.34999 5 7.99999 5C9.64999 5 11 6.35 11 8C11 9.65 9.64999 11 7.99999 11Z" fill="#E5E5E5"/>
</svg>
